<svg width="32" height="32" viewBox="0 0 32 32" fill="none" xmlns="http://www.w3.org/2000/svg"><path d="M16 13.672a3.826 3.826 0 1 0 0 7.651 3.826 3.826 0 0 0 0-7.65Z" fill="#fff"/><path fill-rule="evenodd" clip-rule="evenodd" d="M20.732 4.017a2 2 0 0 0-1.72-.994L13.005 3a2 2 0 0 0-1.742 1.003l-1.753 3.05c-1.747.09-2.909.33-3.844.955A6 6 0 0 0 4.01 9.663C3 11.177 3 13.284 3 17.498s0 6.321 1.011 7.835a6 6 0 0 0 1.656 1.656C7.18 28 9.287 28 13.5 28h5c4.213 0 6.32 0 7.833-1.011a6 6 0 0 0 1.656-1.656C29 23.819 29 21.713 29 17.498c0-4.214 0-6.321-1.011-7.835a6 6 0 0 0-1.656-1.655c-.933-.624-2.093-.863-3.834-.955l-1.767-3.036ZM16 10.997a6.5 6.5 0 0 0-6.5 6.501 6.5 6.5 0 1 0 6.5-6.501Zm8.5-1a1.5 1.5 0 1 1 0 3 1.5 1.5 0 0 1 0-3Z" fill="#fff"/></svg>